PathFileType	4	(X/Y/Z)	C:/Users/opensim2020/Desktop/walking_exp_matlab/subject01_walking15_straight_02.trc	
DataRate	CameraRate	NumFrames	NumMarkers	Units	OrigDataRate	OrigDataStartFrame	OrigNumFrames	
100.00	100.00	7	43	mm	100.00	1195	135	
Frame#	Time	LFHD			RFHD			LBHD			RBHD			C7			T10			CLAV			STRN			RBAK			LSHO			LUPA			LELB			LFRM			LWRA			LWRB			LFIN			RSHO			RUPA			RELB			RFRM			RWRA			RWRB			RFIN			LASI			RASI			LPSI			RPSI			LTHI			LKNE			LTIB			LANK			LHEE			LTOE			RTHI			RKNE			RTIB			RANK			RHEE			RTOE			*39			*40			*41			*42			
		X1	Y1	Z1	X2	Y2	Z2	X3	Y3	Z3	X4	Y4	Z4	X5	Y5	Z5	X6	Y6	Z6	X7	Y7	Z7	X8	Y8	Z8	X9	Y9	Z9	X10	Y10	Z10	X11	Y11	Z11	X12	Y12	Z12	X13	Y13	Z13	X14	Y14	Z14	X15	Y15	Z15	X16	Y16	Z16	X17	Y17	Z17	X18	Y18	Z18	X19	Y19	Z19	X20	Y20	Z20	X21	Y21	Z21	X22	Y22	Z22	X23	Y23	Z23	X24	Y24	Z24	X25	Y25	Z25	X26	Y26	Z26	X27	Y27	Z27	X28	Y28	Z28	X29	Y29	Z29	X30	Y30	Z30	X31	Y31	Z31	X32	Y32	Z32	X33	Y33	Z33	X34	Y34	Z34	X35	Y35	Z35	X36	Y36	Z36	X37	Y37	Z37	X38	Y38	Z38	X39	Y39	Z39	X40	Y40	Z40	X41	Y41	Z41	X42	Y42	Z42	X43	Y43	Z43	

51	0.500	-1047.49036	305.57504	1677.82202	-1154.29309	266.07648	1686.76807	-1084.11975	409.90463	1621.58044	-1198.34460	371.29349	1630.06152	-1115.63037	423.07028	1438.07581	-1122.77795	468.30255	1146.06641	-1109.21924	277.53448	1370.39844	-1102.03723	239.61929	1212.99268	-1195.42566	479.57095	1249.53381	-952.75220	344.16174	1405.48682	-862.29816	386.41354	1228.51050	-855.16223	402.97147	1074.95813	-834.43408	336.34503	977.22021	-856.15479	225.72623	894.09222	-834.62604	276.12726	869.83655	-830.33856	208.49358	817.19568	-1261.53162	333.45718	1404.88074	-1367.72876	412.01102	1217.59656	-1380.54211	420.01370	1092.43762	-1413.94519	393.09146	974.64557	-1395.10388	315.23306	855.60120	-1435.36707	356.08188	858.47748	-1436.99597	319.70978	778.57422	-1002.66693	300.12131	942.02209	-1218.14734	284.25278	941.38733	-1064.12048	479.43481	948.36951	-1208.63123	469.07498	955.38342	-931.19702	266.32388	614.21301	-938.50049	256.66275	481.06589	-949.08167	397.75739	363.98553	-1015.31091	547.56305	209.24815	-1078.58521	587.93774	213.72572	-998.28510	478.36526	78.71950	-1269.38562	328.11890	603.96014	-1240.10168	316.39841	445.71976	-1250.60730	377.68365	279.57590	-1208.25452	423.43460	78.91105	-1165.32263	480.54959	43.76685	-1197.68823	286.72781	36.93098	-1135.63770	286.49396	1718.24963	-3101.84595	1972.96509	1023.50433	-3140.55249	2012.43018	1022.10315			 
52	0.510	-1046.88477	292.19910	1677.98767	-1153.69812	252.82266	1686.96887	-1083.83997	396.57632	1621.80652	-1197.87366	358.14578	1630.46118	-1115.79272	410.03580	1438.32666	-1123.21997	455.57782	1146.53369	-1108.87292	264.64056	1370.62244	-1101.81665	227.73232	1213.15063	-1196.04028	466.26358	1250.02869	-952.55078	331.82690	1405.60938	-862.80304	375.29529	1228.57251	-857.32697	394.73090	1075.38904	-835.36426	332.03809	975.41461	-855.50226	223.88336	887.97943	-834.53650	275.63431	865.87244	-829.23920	210.36668	810.62488	-1261.22217	319.88553	1405.46472	-1368.51465	396.78476	1218.24634	-1381.36084	403.93604	1092.69263	-1414.03674	373.29681	975.38672	-1393.91553	291.76880	859.15784	-1434.44055	332.40799	860.30829	-1435.70398	292.97113	782.06635	-1003.09955	287.35266	943.10437	-1218.66199	272.08585	941.28601	-1063.76868	466.83170	949.23126	-1208.15002	456.61374	955.79706	-930.61816	247.85913	617.54211	-938.04486	235.41595	484.59811	-948.93738	372.78726	363.08594	-1014.29803	515.63580	201.05800	-1077.40393	556.72345	202.62364	-994.66656	438.80838	76.35607	-1269.22546	321.39185	603.80743	-1240.57568	313.68411	445.16772	-1250.70630	376.75623	279.70737	-1207.92871	423.15387	79.48607	-1164.90918	480.41272	44.53859	-1197.54138	286.46130	36.88852	-1135.03113	273.15689	1718.46948	-3101.88770	1973.11035	1023.71252	-3140.73999	2012.48975	1022.16431			 
53	0.520	-1046.29468	279.02591	1677.89758	-1153.10999	239.57533	1687.02539	-1083.15344	383.54333	1622.03894	-1197.24902	345.00528	1630.65894	-1115.77283	397.09256	1438.39087	-1123.56116	442.68933	1146.65149	-1108.34009	251.79939	1370.72937	-1101.47095	214.89067	1213.29663	-1196.57300	453.04855	1250.38696	-952.27228	319.45935	1405.54932	-863.32556	364.10455	1228.28186	-859.69537	386.00726	1075.44873	-836.35974	327.49985	973.60925	-854.87384	222.26064	882.03107	-834.68524	275.30505	862.10089	-828.16260	212.37648	804.33716	-1260.89417	306.33890	1406.12000	-1369.00989	381.59567	1218.69519	-1382.06921	387.92004	1092.79639	-1413.92114	353.53546	976.03870	-1392.50598	268.39145	862.78174	-1433.30042	308.75888	862.23962	-1434.09497	266.40292	785.75250	-1003.50653	274.46909	943.99451	-1218.96301	260.00809	940.91028	-1063.40076	454.42453	949.89093	-1207.66687	444.32922	955.94568	-929.97906	230.14752	620.57928	-937.71521	214.96402	487.91968	-948.47235	347.63745	361.13248	-1012.71332	483.22415	192.22108	-1076.06738	524.38269	190.78723	-990.90790	399.23666	73.11129	-1269.29651	314.73093	603.66632	-1241.06213	311.13272	444.82306	-1250.70691	375.57251	280.06836	-1207.85938	422.99814	80.14619	-1164.34131	480.09698	45.36861	-1197.54529	286.34860	36.93185	-1134.31812	259.90002	1718.51343	-3101.87744	1973.14685	1023.46484	-3140.75269	2012.43872	1022.12244			 
54	0.530	-1045.44983	265.82468	1677.69714	-1152.32495	226.41321	1686.94165	-1082.18713	370.34268	1621.85095	-1196.48022	331.84830	1630.72900	-1115.67969	384.02087	1438.27576	-1123.96155	429.93417	1146.73035	-1107.81921	239.00060	1370.54065	-1101.08911	202.02316	1213.15356	-1197.08472	439.83710	1250.55786	-951.83167	306.93359	1405.22864	-863.93030	352.93573	1227.68262	-861.48303	377.36548	1075.58875	-837.41089	322.80328	971.90747	-854.22540	221.19615	876.26929	-835.06952	275.15921	858.54620	-827.01605	214.42328	798.41168	-1260.50256	292.80096	1406.41235	-1369.42041	366.56696	1219.01672	-1382.73572	371.99146	1092.76758	-1413.76440	333.91519	976.72058	-1390.97595	245.18907	866.53162	-1431.99231	285.24646	864.26190	-1432.41748	240.14415	789.78046	-1003.85614	261.74371	944.65210	-1219.30298	247.94513	940.40125	-1063.00500	441.77615	950.24097	-1207.21851	432.14389	955.67859	-929.33234	212.97891	623.26807	-937.51306	194.97211	491.11032	-947.69427	322.37378	358.20166	-1010.73328	449.93097	182.49969	-1074.53723	491.03952	178.17842	-986.72626	359.55350	69.54768	-1269.26086	308.34259	603.61609	-1241.53333	308.22391	444.89688	-1250.54492	374.16138	280.59311	-1207.34131	422.37555	80.76257	-1163.77319	479.44464	46.52641	-1197.47046	286.09354	36.99057	-1133.49255	246.65820	1718.43958	-3101.89429	1973.17151	1023.60004	-3140.74023	2012.49780	1022.09888			 
55	0.540	-1044.64331	252.57420	1677.26733	-1151.37000	213.25429	1686.71094	-1081.61682	357.20975	1621.60645	-1195.31738	318.85339	1630.44141	-1115.49707	370.97403	1438.05005	-1124.28601	417.01154	1146.59338	-1107.19641	226.11720	1370.32983	-1100.69971	189.24648	1212.94373	-1197.48608	426.59537	1250.56421	-951.35492	294.43832	1404.73828	-864.45886	341.83084	1226.89624	-862.87305	368.36142	1075.46594	-838.48602	317.81467	970.26343	-853.80164	219.76619	870.73651	-835.51233	274.49844	855.04926	-825.77740	216.62645	793.09900	-1259.95422	279.28876	1406.56091	-1369.75049	351.64175	1219.17029	-1383.26917	356.09473	1092.60388	-1413.41663	314.34073	977.32733	-1389.26941	222.21317	870.41595	-1430.50024	261.86389	866.41937	-1430.49084	214.02898	793.96588	-1004.18933	249.05046	945.01495	-1219.51025	235.91670	939.69708	-1062.59863	429.24731	950.31714	-1206.83044	420.12238	955.19836	-928.59735	196.37170	625.56897	-937.44379	175.62280	493.77039	-946.67059	297.11087	354.34943	-1008.91248	416.04620	172.27853	-1072.88428	456.25726	164.54755	-982.87549	318.82489	66.01441	-1269.04517	301.44708	603.53296	-1241.65564	304.73260	444.68588	-1250.34131	372.32184	281.27377	-1206.75049	422.15015	81.60254	-1163.03687	479.19589	47.64950	-1197.41772	285.97739	36.99033	-1132.60083	233.49318	1718.19714	-3101.93066	1973.11133	1023.91821	-3140.64941	2012.48425	1022.07062			 
56	0.550	-1043.41846	239.47226	1676.96411	-1150.49731	200.08611	1686.35486	-1080.62036	344.04315	1621.13892	-1194.41541	305.71255	1630.18713	-1115.11853	357.85437	1437.68579	-1124.58203	404.14227	1146.27893	-1106.54114	213.16774	1369.81897	-1100.24866	176.36940	1212.42053	-1197.82629	413.37799	1250.39380	-950.69824	281.91943	1404.07349	-864.99261	330.77188	1225.96033	-864.18640	359.30560	1075.41589	-839.46985	312.78720	968.64148	-853.40149	218.29240	865.48267	-836.05365	273.79398	851.96509	-824.66077	218.69757	788.10742	-1259.38611	265.72412	1406.58765	-1369.91235	336.85330	1219.14026	-1383.72998	340.26273	1092.27625	-1412.98962	294.89337	977.95184	-1387.47192	199.51180	874.35602	-1428.89038	238.65294	868.69843	-1428.39099	188.20699	798.24237	-1003.97345	235.47778	945.48810	-1219.62878	224.17778	938.48218	-1062.17664	416.75623	950.11194	-1206.33447	408.07040	954.46442	-927.93219	180.11499	627.38916	-937.54547	156.90919	495.93158	-945.46851	271.94656	349.81363	-1006.78979	381.56766	161.80795	-1071.04688	420.79019	150.68056	-978.30115	277.92044	62.69324	-1268.85046	294.48849	603.18359	-1241.49329	301.03500	444.47839	-1249.89880	369.98743	281.79535	-1206.13367	421.70087	82.61942	-1162.12903	478.85822	49.03210	-1197.15662	286.02393	36.75709	-1131.49292	220.33249	1717.78918	-3102.04688	1972.98596	1023.98169	-3140.71338	2012.46912	1022.12469			 
57	0.560	-1042.46582	226.20674	1676.01538	-1149.33875	186.95152	1685.85474	-1079.49304	330.89001	1620.47559	-1193.34265	292.56146	1629.74609	-1114.60327	344.68161	1437.19421	-1124.74207	391.12198	1145.77502	-1105.84924	200.21053	1369.17041	-1099.73010	163.41721	1211.73730	-1197.97473	400.18436	1250.06238	-949.97314	269.14130	1403.23718	-865.37488	319.75964	1225.00061	-865.56891	349.76633	1074.97742	-840.42273	307.21368	967.11353	-853.22131	216.69646	860.38196	-836.97095	272.93475	849.14478	-823.64178	220.73392	783.61096	-1258.67639	252.26071	1406.32825	-1369.81616	322.12650	1218.83765	-1384.09570	324.44217	1091.79700	-1412.42493	275.65332	978.47791	-1385.55457	177.04623	878.30695	-1427.27014	215.63463	871.06519	-1426.19727	162.72752	802.56360	-1004.08667	222.75864	945.28375	-1219.88391	211.88300	937.62872	-1061.71191	404.27805	949.61115	-1205.87231	396.04993	953.57404	-927.37079	164.17067	628.79700	-937.69232	138.93694	497.43204	-944.21246	246.92776	344.82449	-1004.41583	345.85764	150.78966	-1068.51172	384.41907	136.22374	-973.90710	236.32680	59.69138	-1268.80408	287.58640	602.89722	-1241.40405	297.20731	444.36148	-1249.31702	367.49844	282.38623	-1205.56848	421.24799	83.72238	-1161.16382	478.39426	50.56256	-1197.06006	286.07034	36.55890	-1130.26892	207.17210	1717.27490	-3101.85278	1973.02026	1023.39777	-3140.65869	2012.56360	1022.10291			 
